<svg width="1440" height="923" viewBox="0 0 1440 923" fill="none" xmlns="http://www.w3.org/2000/svg">
<path fill-rule="evenodd" clip-rule="evenodd" d="M-459.521 400.247C-452.518 375.909 -454.066 379.037 -433.254 360.525C-307.845 248.982 44.5082 134.597 215.429 98.6964C337.905 72.9716 557.719 38.4971 649.955 140.232C695.735 190.727 718.13 283.697 707.87 348.588C678.424 534.821 453.327 615.307 311.076 716.049C290.455 730.652 244.915 760.496 256.067 788.433C284.771 860.334 399.932 857.119 469.277 852.607C830.44 829.111 1398.15 581.62 1744.32 451.376C1773.2 440.511 1857.97 408.497 1882.07 405.672L1901.91 405.829L1890.56 420.553C1872.93 437.88 1788.22 486.479 1759.11 503.097C1444.73 682.575 633.724 1092.09 268.098 1001.56C179.044 979.512 100.208 920.532 71.2772 839.188C0.731706 640.835 251.675 552.102 398.075 469.487C487.6 418.966 579.351 360.88 546.014 254.318C536.421 223.656 534.614 215.966 501.544 206.012C318.15 150.809 -172.49 288.498 -353.656 357.543C-385.324 369.611 -430.335 391.762 -459.521 400.247V400.247Z" fill="url(#paint0_linear_32_4)"/>
<path fill-rule="evenodd" clip-rule="evenodd" d="M1924.53 -59.7176C1953.93 -69.6223 1956.19 -70.664 1987.12 -66.9113C2020.23 -62.8936 2060.39 -46.4471 2047.57 -9.30603C2027.32 49.3911 1796.92 115.204 1726.35 137.073C1559.29 188.848 1344 265.577 1199 303.5C1134 320.5 1098 324 1094.06 370.584C1084.63 482.102 1402.1 365.835 1484.06 336.616C1536.33 317.981 1582.23 297.953 1632.49 275.69C1655.35 265.566 1905.52 185.41 1900.93 241.488C1899.9 254.091 1889.05 254.841 1879.37 255.764C1879.36 255.69 1879.13 253.987 1878.81 251.762L1878.21 252.077C1810.46 283.79 1747.27 314.95 1681.16 349.593L1683.25 348.681C1517.92 460.779 1206.01 613.393 1006.67 510.725C878.326 444.621 861.359 322.766 974.465 232.13C1101.41 130.408 1506.42 62.7385 1680.69 32.0466C1761.12 17.8807 1899.7 -2.09695 1976.64 -27.2702C1975.32 -27.9647 1974.3 -28.4824 1973.8 -28.7462C1943.06 -44.7391 1952.76 -35.6225 1924.53 -59.7176ZM1083.53 359.691C1082.98 358.382 1082.27 357.043 1081.35 355.69L1081.05 356.308C1081.84 357.469 1082.68 358.587 1083.53 359.691ZM1990 -19.2502C1990.61 -16.8584 1991.89 -14.9121 1994.41 -14.2929C1994.29 -15.6237 1992.5 -17.3977 1990 -19.2502Z" fill="url(#paint1_linear_32_4)"/>
<defs>
<linearGradient id="paint0_linear_32_4" x1="721.194" y1="71.6298" x2="721.194" y2="1014.46" gradientUnits="userSpaceOnUse">
<stop stop-color="#7AD1D1"/>
<stop offset="1" stop-color="#A3E6A9"/>
</linearGradient>
<linearGradient id="paint1_linear_32_4" x1="1474.55" y1="-68.9165" x2="1474.55" y2="544.655" gradientUnits="userSpaceOnUse">
<stop stop-color="#7AD1D1"/>
<stop offset="1" stop-color="#A3E6A9"/>
</linearGradient>
</defs>
</svg>
