<svg width="1440" height="923" viewBox="0 0 1440 923" fill="none" xmlns="http://www.w3.org/2000/svg">
<path fill-rule="evenodd" clip-rule="evenodd" d="M0 360.641C4.01876 338.358 3.13014 341.221 15.0726 324.272C87.0333 222.146 289.217 117.417 387.294 84.5469C457.571 60.9937 583.703 29.4294 636.629 122.576C662.898 168.808 675.749 253.93 669.861 313.343C652.965 483.855 523.802 557.546 442.177 649.784C430.344 663.154 404.213 690.479 410.612 716.057C427.083 781.889 493.163 778.945 532.954 774.814C740.193 753.301 1065.95 526.703 1264.59 407.454C1281.16 397.506 1329.8 368.194 1343.63 365.608L1355.01 365.752L1348.5 379.233C1338.38 395.097 1289.78 439.593 1273.07 454.809C1092.68 619.136 627.316 994.077 417.516 911.194C366.416 891.006 321.178 837.005 304.578 762.528C264.098 580.919 408.092 499.677 492.098 424.036C543.468 377.78 596.116 324.598 576.987 227.031C571.482 198.958 570.445 191.917 551.47 182.803C446.236 132.26 164.702 258.326 60.7469 321.542C42.5755 332.592 16.7475 352.872 0 360.641V360.641Z" fill="url(#paint0_linear_61_145)"/>
<path fill-rule="evenodd" clip-rule="evenodd" d="M1368 -60.4942C1384.86 -69.5627 1386.16 -70.5165 1403.91 -67.0806C1422.91 -63.4021 1445.95 -48.3439 1438.6 -14.3382C1426.97 39.4038 1294.77 99.661 1254.28 119.684C1158.42 167.088 1034.88 237.34 951.677 272.061C914.379 287.626 893.722 290.831 891.462 333.483C886.052 435.586 1068.22 329.134 1115.25 302.382C1145.24 285.32 1171.58 266.982 1200.42 246.599C1213.53 237.33 1357.08 163.941 1354.45 215.284C1353.86 226.823 1347.63 227.51 1342.08 228.355C1342.08 228.287 1341.94 226.728 1341.76 224.691L1341.41 224.979C1302.54 254.015 1266.28 282.545 1228.34 314.263L1229.54 313.429C1134.68 416.063 955.702 555.794 841.318 461.793C767.671 401.27 757.935 289.701 822.837 206.716C895.677 113.581 1128.08 51.6245 1228.07 23.5235C1274.23 10.5535 1353.75 -7.73771 1397.9 -30.7859C1397.14 -31.4217 1396.55 -31.8958 1396.26 -32.1372C1378.63 -46.7801 1384.19 -38.4331 1368 -60.4942ZM885.42 323.509C885.106 322.31 884.697 321.085 884.168 319.846L883.996 320.411C884.448 321.475 884.929 322.498 885.42 323.509ZM1405.56 -23.443C1405.91 -21.253 1406.65 -19.4711 1408.09 -18.9041C1408.02 -20.1226 1406.99 -21.7468 1405.56 -23.443Z" fill="url(#paint1_linear_61_145)"/>
<defs>
<linearGradient id="paint0_linear_61_145" x1="677.507" y1="59.7651" x2="677.507" y2="923" gradientUnits="userSpaceOnUse">
<stop stop-color="#7AD1D1"/>
<stop offset="1" stop-color="#A3E6A9"/>
</linearGradient>
<linearGradient id="paint1_linear_61_145" x1="1109.79" y1="-68.9165" x2="1109.79" y2="492.859" gradientUnits="userSpaceOnUse">
<stop stop-color="#7AD1D1"/>
<stop offset="1" stop-color="#A3E6A9"/>
</linearGradient>
</defs>
</svg>
