<svg width="150" height="100" viewBox="0 0 150 100" fill="none" xmlns="http://www.w3.org/2000/svg">
<path d="M42.9903 64H34.7103V37.24H42.9903V64ZM81.385 37.24L76.025 44.2H66.465V64H58.185V44.2H45.625L50.985 37.24H81.385ZM111.007 64.44C110.474 64.44 109.941 64.3467 109.407 64.16C108.901 64 108.327 63.6133 107.687 63L91.2872 48.28V64H83.7672V41.8C83.7672 40.92 83.8872 40.16 84.1272 39.52C84.3939 38.88 84.7272 38.36 85.1272 37.96C85.5539 37.56 86.0339 37.2667 86.5672 37.08C87.1272 36.8933 87.7005 36.8 88.2872 36.8C88.7939 36.8 89.3005 36.8933 89.8072 37.08C90.3405 37.24 90.9405 37.6267 91.6072 38.24L108.007 52.96V37.24H115.567V59.4C115.567 60.28 115.434 61.04 115.167 61.68C114.927 62.32 114.594 62.8533 114.167 63.28C113.767 63.68 113.287 63.9733 112.727 64.16C112.167 64.3467 111.594 64.44 111.007 64.44Z" fill="white"/>
<path fill-rule="evenodd" clip-rule="evenodd" d="M8.06811 61.7802C7.35273 62.084 7.03624 62.1069 6.26257 62.1106C1.96537 62.131 1.36046 59.0029 2.99824 55.4957C4.98924 51.232 9.96953 46.2758 13.5929 43.4117C16.6439 41 22.06 38.0451 25.8645 37.2496C30.9995 36.1758 34.2077 38.5874 33.2968 44.0904C33.1603 44.9148 33.1557 44.9632 32.7812 45.6993C32.4809 44.1614 32.7309 42.8115 32.2124 41.2112C30.1786 34.9344 19.689 42.2079 16.8882 44.2922C14.8962 45.7745 12.8622 47.2844 10.9928 48.9225C9.27327 50.4294 1.06683 58.0331 4.20162 60.557C5.3093 61.4488 6.80237 61.3317 8.06811 61.7802V61.7802Z" fill="white" stroke="white" stroke-width="0.1764" stroke-miterlimit="22.9256"/>
<path d="M18.6513 64.1847C25.1938 64.1847 30.4975 58.7441 30.4975 52.0329C30.4975 45.3216 25.1938 39.8811 18.6513 39.8811C12.1088 39.8811 6.80505 45.3216 6.80505 52.0329C6.80505 58.7441 12.1088 64.1847 18.6513 64.1847Z" fill="#7AD1D1" stroke="#7AD1D1" stroke-width="0.1764" stroke-miterlimit="22.9256"/>
<path d="M17.1953 40.0046C17.1538 40.0089 16.992 40.0242 16.8345 40.0373C15.203 40.1728 13.4402 40.7234 12.012 41.5405C8.6921 43.4436 6.51161 46.7514 6.07638 50.5444C5.96702 51.4948 5.97578 52.5981 6.09825 53.5813C6.37819 55.8252 7.31863 57.9664 8.79926 59.7449C9.09233 60.0966 9.89279 60.8963 10.2405 61.1847C12.1892 62.8015 14.5293 63.7563 17.0423 63.9595C18.6432 64.0906 20.3578 63.9005 21.7969 63.4351C24.1896 62.6595 26.1557 61.2502 27.6429 59.2402C28.9748 57.4398 29.7425 55.4101 29.9721 53.0897C30.0093 52.7227 30.0093 51.2632 29.9721 50.9049C29.7403 48.6304 29.0295 46.6903 27.7938 44.9664C25.9589 42.4014 23.1988 40.6797 20.0823 40.1575C19.3212 40.0286 19.0675 40.0089 18.1248 40.0024C17.6568 39.998 17.2369 40.0002 17.1953 40.0046V40.0046ZM17.2894 41.8573C17.4469 41.9229 17.4359 41.7568 17.4359 44.1624C17.4359 45.9758 17.4316 46.3254 17.4053 46.3341C17.3178 46.3691 16.3555 46.2402 15.7956 46.12C15.1417 45.9802 14.4462 45.7814 14.4265 45.7289C14.4047 45.6743 14.5315 45.3422 14.7109 44.9817C15.122 44.158 15.5419 43.437 16.0646 42.657C16.5152 41.9841 16.5611 41.9404 16.8782 41.8595C17.0269 41.8224 17.2041 41.8202 17.2894 41.8573H17.2894V41.8573ZM19.4808 41.8923C19.623 41.9316 19.9226 42.2594 20.2091 42.6832C20.5044 43.1224 20.9111 43.7975 21.1649 44.2716C21.3945 44.6999 21.7225 45.3728 21.786 45.5454L21.8319 45.6721L21.7707 45.7027C21.6088 45.7857 20.6684 46.0392 20.1041 46.1506C19.6383 46.2424 18.805 46.3472 18.7744 46.3166C18.7657 46.3101 18.7591 45.3422 18.7591 44.1689C18.7591 41.7918 18.7503 41.9272 18.9056 41.8748C18.9931 41.8464 19.3561 41.8573 19.4808 41.8923V41.8923V41.8923ZM14.2078 42.6177C14.175 42.681 14.105 42.8121 14.0525 42.9061C13.7289 43.4763 13.4139 44.1121 13.1165 44.7982C12.9743 45.1259 12.9547 45.1587 12.9087 45.1521C12.8322 45.1434 11.918 44.6911 11.6184 44.5141C11.31 44.3328 11.2991 44.3109 11.45 44.1493C11.7999 43.7691 12.8147 43.1136 13.6086 42.7553C13.8185 42.6592 14.2078 42.5084 14.2494 42.5041C14.2581 42.5041 14.2385 42.5565 14.2078 42.6177V42.6177V42.6177ZM22.1512 42.6002C22.8948 42.8231 24.0211 43.4632 24.7166 44.0575L24.9003 44.2148L24.8303 44.276C24.6051 44.4639 23.1529 45.1958 23.072 45.163C23.0566 45.1565 23.0173 45.08 22.9823 44.9926C22.7614 44.4398 22.359 43.6052 22.0222 43.0022C21.8975 42.7772 21.7882 42.5783 21.7794 42.5565C21.7663 42.5237 21.7772 42.5215 21.8734 42.5346C21.9325 42.5412 22.0572 42.5718 22.1512 42.6002V42.6002V42.6002ZM10.4308 45.4427C10.4702 45.4602 10.6911 45.5782 10.9229 45.7071C11.1547 45.836 11.5877 46.0632 11.8874 46.2118C12.3095 46.4237 12.4276 46.4914 12.4276 46.5242C12.4276 46.5483 12.3598 46.7798 12.2745 47.042C11.813 48.4906 11.5287 49.8146 11.4215 51.0032C11.4084 51.154 11.3931 51.3091 11.3866 51.3462L11.3756 51.4183H9.72876C8.82332 51.4183 8.00755 51.4118 7.9135 51.4052C7.75822 51.3899 7.74511 51.3855 7.7298 51.3331C7.66856 51.1124 7.80415 50.197 8.02066 49.3755C8.36185 48.0755 9.03327 46.7405 9.86217 45.7049C10.0831 45.4296 10.1487 45.3815 10.2733 45.4012C10.3214 45.4077 10.3914 45.4274 10.4308 45.4427V45.4427ZM26.1098 45.4777C26.2913 45.6022 26.6193 45.9998 26.9124 46.4477C27.7282 47.704 28.3099 49.3077 28.4696 50.741C28.4871 50.9027 28.5024 51.1212 28.5024 51.226V51.4161L28.404 51.4314C28.3493 51.438 27.492 51.4424 26.4991 51.4358C24.9375 51.4292 24.6926 51.4249 24.6751 51.3965C24.6423 51.344 24.6138 51.1736 24.5767 50.7956C24.476 49.7775 24.2005 48.5256 23.7674 47.1272C23.6515 46.7492 23.6493 46.7318 23.6843 46.6793C23.7521 46.5745 23.914 46.4696 24.3645 46.2358C24.8347 45.9933 25.1365 45.8272 25.4843 45.6197C25.9151 45.3641 25.937 45.3597 26.1098 45.4777V45.4777ZM22.3306 47.2124C22.5033 47.3566 22.733 47.9903 22.9998 49.0477C23.1944 49.8277 23.3782 51.0928 23.3322 51.3418L23.3169 51.4183H21.0555H18.7963L18.7722 51.3091C18.7394 51.1583 18.7394 48.294 18.77 48.1803C18.8094 48.0427 18.8969 48.0077 19.5902 47.8701C20.3972 47.7062 20.8477 47.5882 21.5476 47.3545C21.8669 47.2474 22.1578 47.16 22.1971 47.1578C22.2387 47.1578 22.2912 47.1775 22.3306 47.2124V47.2124ZM14.2647 47.2321C14.3675 47.2605 14.6824 47.3545 14.9646 47.4397C15.7475 47.6778 16.3118 47.8111 16.8673 47.8898C17.2107 47.9356 17.2697 47.9553 17.3594 48.0471L17.4359 48.1257V49.7731V51.4183L15.1854 51.4139C13.9476 51.4096 12.9262 51.4008 12.9175 51.3921C12.83 51.3047 12.9678 50.1729 13.1734 49.2881C13.3352 48.5933 13.6479 47.5555 13.7639 47.3282C13.847 47.1644 13.9541 47.1447 14.2647 47.2321V47.2321ZM11.3647 52.904C11.3844 52.9259 11.415 53.0963 11.4543 53.4065C11.485 53.6644 11.5309 53.9987 11.5549 54.1494C11.708 55.0976 12.0252 56.2884 12.397 57.3218C12.4735 57.5403 12.5304 57.726 12.5216 57.7348C12.5129 57.7435 12.3773 57.8091 12.2198 57.8812C11.5899 58.1674 10.9601 58.5038 10.4352 58.8272C10.2821 58.9233 10.1421 59.0064 10.1202 59.0129C10.0721 59.0326 9.96058 58.9233 9.71782 58.6175C8.9611 57.6692 8.46463 56.686 8.09064 55.3839C7.82382 54.464 7.63793 53.2536 7.72541 53.0242C7.78008 52.88 7.98348 52.8647 9.85122 52.8691C11.1372 52.8713 11.3362 52.8756 11.3647 52.904V52.904V52.904ZM17.2063 52.8844C17.2588 52.8975 17.3266 52.9368 17.3638 52.9739L17.425 53.0373L17.4316 54.6847C17.4359 56.2425 17.4337 56.3321 17.3987 56.343C17.3769 56.3496 17.2566 56.3649 17.1297 56.378C16.2527 56.4697 15.2882 56.7013 14.3237 57.0487C13.7442 57.2585 13.8032 57.241 13.7704 57.1973C13.6873 57.0859 13.3964 56.1114 13.2171 55.3511C13.0465 54.6257 12.8934 53.6622 12.8825 53.2514C12.8737 52.9499 12.9197 52.9171 13.3899 52.8844C13.7901 52.856 17.0926 52.856 17.2063 52.8844H17.2063V52.8844ZM23.1485 52.9084C23.3213 52.9871 23.3344 53.0919 23.2404 53.7343C23.1223 54.558 22.897 55.5281 22.6346 56.3452C22.429 56.9832 22.3152 57.2738 22.2671 57.2738C22.2562 57.2738 22.1206 57.2257 21.9675 57.1667C21.2873 56.9045 20.6225 56.7013 20.0057 56.5659C19.693 56.4981 19.4961 56.461 18.9516 56.378C18.7941 56.3518 18.7919 56.3518 18.77 56.2731C18.7525 56.2185 18.7482 55.6897 18.7525 54.6257L18.7591 53.0613L18.8116 53.0067C18.9275 52.8822 19.2271 52.8647 21.3835 52.8691C22.9057 52.8713 23.0763 52.8756 23.1485 52.9084V52.9084ZM28.3253 52.9215C28.3668 52.9412 28.4215 52.9849 28.4455 53.0198C28.4871 53.0766 28.4871 53.0897 28.4609 53.3585C28.3537 54.4575 27.9578 55.8077 27.4504 56.8215C27.0611 57.5971 26.4969 58.4405 26.0464 58.919L25.9064 59.0697L25.7117 58.943C25.2218 58.6262 24.6751 58.3225 23.9949 57.9904C23.5619 57.7785 23.5662 57.7872 23.715 57.324C24.0452 56.295 24.1677 55.8711 24.3011 55.2855C24.4476 54.6497 24.5592 53.9855 24.6095 53.4612C24.6401 53.1291 24.6663 53.0395 24.7494 52.9893C24.9178 52.8866 25.3093 52.8691 27.048 52.8778C28.1219 52.8844 28.2596 52.8887 28.3253 52.9215V52.9215V52.9215ZM17.2413 57.8637C17.2828 57.8768 17.3419 57.9118 17.3725 57.9423L17.425 57.9991L17.4316 59.5963C17.4337 60.4768 17.4294 61.4949 17.4206 61.862L17.4031 62.5284L17.1953 62.5218C16.9745 62.5175 16.7295 62.489 16.5502 62.4497C16.4474 62.4279 16.4321 62.4148 16.3052 62.2465C16.1325 62.0171 15.7956 61.5212 15.6097 61.2175C15.1242 60.4331 14.4637 59.0938 14.3916 58.7529C14.3697 58.6481 14.3719 58.6262 14.4091 58.5607C14.4659 58.4645 14.5643 58.4121 14.8989 58.3007C15.4173 58.1281 15.9968 57.997 16.6595 57.8965C17.0598 57.8375 17.1319 57.8331 17.2413 57.8637V57.8637ZM19.787 57.9402C20.1194 57.9904 20.4256 58.0538 20.8565 58.1608C21.5541 58.3334 21.7663 58.423 21.7663 58.541C21.7663 58.6699 21.1627 59.9153 20.7646 60.6057C20.4059 61.2306 20.0363 61.8008 19.6952 62.2575L19.5552 62.4454L19.3649 62.4716C19.2599 62.4869 19.0893 62.5043 18.9865 62.5109C18.8028 62.524 18.7963 62.5218 18.7678 62.4716C18.7241 62.3973 18.7219 58.104 18.7635 58.0101C18.8116 57.903 18.8947 57.8833 19.2512 57.8943C19.4261 57.9008 19.6667 57.9205 19.787 57.9402ZM13.0596 59.0654C13.0837 59.0763 13.1756 59.2554 13.2718 59.4739C13.6173 60.2561 13.9891 60.964 14.4047 61.6348C14.5337 61.8423 14.584 61.9406 14.5621 61.945C14.5162 61.9559 14.0023 61.7833 13.6851 61.6501C12.9175 61.3267 12.0405 60.8111 11.4565 60.337C11.2181 60.1425 11.2116 60.066 11.4172 59.9065C11.7758 59.6291 12.7294 59.0938 12.9306 59.0588C12.9612 59.0544 12.994 59.0479 13.0028 59.0457C13.0137 59.0457 13.0378 59.0523 13.0596 59.0654H13.0596ZM23.3825 59.1309C23.7959 59.2664 24.7866 59.8213 24.885 59.9743C24.9309 60.042 24.9244 60.0464 24.6532 60.267C23.8506 60.9116 22.8751 61.4687 22.0375 61.7593C21.6591 61.8882 21.6351 61.8948 21.6351 61.8467C21.6351 61.7943 21.7204 61.6326 21.9456 61.248C22.2212 60.7805 22.523 60.1884 22.7505 59.6662C22.9735 59.1571 23.0238 59.0872 23.1638 59.0872C23.2097 59.0872 23.3082 59.1069 23.3825 59.1309V59.1309Z" fill="white" stroke="white" stroke-width="0.1764" stroke-miterlimit="22.9256"/>
<path fill-rule="evenodd" clip-rule="evenodd" d="M3.20685 63.0023C4.30161 62.8448 5.48352 62.9832 6.61907 62.9101C11.9976 62.5637 17.4802 60.14 21.8098 56.9079C23.7996 55.4225 25.0511 54.6036 26.7582 52.6461C29.7072 49.2644 30.9534 45.707 29.9885 41.2153C29.7805 40.2469 29.8686 40.8797 29.7784 39.8416C30.3385 40.4281 30.2637 40.2622 30.6251 40.9766C32.2501 44.1888 31.7819 48.0142 30.2598 51.1585C28.8999 53.9678 25.9434 57.3861 23.3186 59.1477C18.4598 62.4087 10.5182 65.1742 4.79988 63.7209C3.95357 63.5058 3.90142 63.5041 3.20685 63.0023V63.0023Z" fill="white" stroke="white" stroke-width="0.1764" stroke-miterlimit="22.9256"/>
</svg>
