<svg width="36" height="34" viewBox="0 0 36 34" fill="none" xmlns="http://www.w3.org/2000/svg">
<path d="M35.5359 31.5517L26.6189 23.1231C28.7287 20.6792 30.0004 17.5688 30.0004 14.1738C30.0004 6.36306 23.274 0.00341797 14.9965 0.00341797C6.71904 0.00341797 0 6.36306 0 14.1738C0 21.9845 6.72639 28.3372 15.0039 28.3372C18.5913 28.3372 21.892 27.136 24.4796 25.1434L33.3967 33.5651C34.0069 34.1414 34.9331 34.1414 35.5433 33.5651C36.1534 32.9889 36.1534 32.1279 35.5359 31.5517ZM2.99196 14.1738C2.99196 7.91826 8.37307 2.8361 14.9965 2.8361C21.62 2.8361 27.0085 7.9252 27.0085 14.1807C27.0085 20.4362 21.62 25.5253 14.9965 25.5253C8.37307 25.5253 2.99196 20.4293 2.99196 14.1738Z" fill="white"/>
</svg>
