<svg width="60" height="60" viewBox="0 0 60 60" fill="none" xmlns="http://www.w3.org/2000/svg">
<circle cx="30" cy="30" r="29" fill="#7AD1D1" stroke="white" stroke-width="2"/>
<g clip-path="url(#clip0_45_143)">
<path fill-rule="evenodd" clip-rule="evenodd" d="M40.1925 31.8448C44.028 28.8867 46.5 24.3087 46.5 19.1562C46.5 10.2336 39.1125 3 30 3C20.8875 3 13.5 10.2336 13.5 19.1562C13.5 24.3086 15.972 28.8867 19.8075 31.8448C12.93 35.2772 8.08945 42.0571 7.55396 50L10 52.5C10.579 45.0624 16.0754 36.329 22.872 33.7101C25.032 34.7264 27.444 35.3126 30 35.3126C32.5575 35.3126 34.968 34.7265 37.1279 33.7101C43.9245 36.329 49.421 45.0624 50 52.5L52.446 50C51.912 42.0571 47.07 35.2772 40.1925 31.8448ZM16.4999 19.1562C16.4999 26.4575 22.5435 32.3751 30 32.3751C37.4565 32.3751 43.5 26.4575 43.5 19.1562C43.5 11.8551 37.4565 5.93752 30 5.93752C22.5435 5.93752 16.4999 11.8551 16.4999 19.1562Z" fill="white"/>
</g>
<defs>
<clipPath id="clip0_45_143">
<rect width="48" height="47" fill="white" transform="translate(6 3)"/>
</clipPath>
</defs>
</svg>
